<?xml version="1.0" encoding="UTF-8"?>
<svg id="Layer_1" xmlns="http://www.w3.org/2000/svg" viewBox="0 0 240.57 192.41">
  <defs>
    <style>
      .cls-1 {
        fill: #f1f2f2;
      }
    </style>
  </defs>
  <path class="cls-1" d="M19.19,71.18c15.26,0,25.71,9.93,25.71,24.45s-10.45,24.45-25.71,24.45H0v-48.9h19.19ZM13.04,108.75h5.85c7.56,0,12.74-5.41,12.74-13.26s-5.19-12.97-12.74-12.97h-5.85v26.23Z"/>
  <path class="cls-1" d="M49.21,120.09c7.63.02,15.26.04,22.89.06-5.23-8.35-10.45-16.7-15.68-25.05,5.56-7.95,11.12-15.9,16.68-23.85-7.96-.02-15.93-.05-23.89-.07v48.9Z"/>
  <g>
    <path class="cls-1" d="M195.87,120.15c.47.47.91.83,1.34,1.08.43.26.83.4,1.2.44.36.04.7-.01,1.02-.15.32-.13.62-.35.91-.63.25-.25.44-.53.59-.84.14-.31.19-.64.15-1-.04-.39-.17-.79-.39-1.18-.22-.4-.6-.86-1.14-1.41-.5-.5-.97-.87-1.4-1.13-.43-.25-.83-.39-1.19-.43-.37-.04-.71,0-1.03.15-.31.14-.6.34-.87.61s-.46.53-.6.81c-.13.27-.19.61-.16,1.01.03.37.17.77.42,1.21s.63.92,1.15,1.45Z"/>
    <path class="cls-1" d="M163.36,147.85c-.56-.02-1.12.25-1.69.82-.53.53-.82,1.1-.89,1.71-.07.61.18,1.24.74,1.89l3.55-3.55c-.59-.56-1.16-.85-1.72-.87Z"/>
    <path class="cls-1" d="M144.36,0l-71.25,71.25h14.07l-16.08,23.94,16.61,24.96h-15.6l72.25,72.25,96.2-96.2L144.36,0ZM183.46,117l2.08,2.08-2.9,2.89-2.08-2.06,2.9-2.9ZM128.01,82.59h-12.9v37.56h-13.03v-37.56h-12.97v-11.33h38.9v11.33ZM132.6,71.25h13.03v37.56h18.67v11.33h-31.71v-48.9ZM153.7,169.62c-.15.36-.31.74-.51,1.11-.27.47-.54.9-.81,1.28-.26.38-.67.85-1.24,1.42-.85.85-1.75,1.5-2.71,1.96-.96.47-1.94.72-2.94.73-1,.03-2.01-.19-3.04-.65-1.01-.46-2-1.16-2.97-2.12-.89-.9-1.57-1.85-2.04-2.85-.46-1-.69-2.01-.7-3.05-.01-1,.22-2,.66-3,.46-1,1.12-1.93,1.97-2.79.49-.47.94-.88,1.38-1.2.43-.34.86-.62,1.27-.86.43-.24.85-.43,1.24-.59.4-.16.76-.28,1.07-.39l2.74,2.74-.34.34c-.26.01-.58.05-.96.11-.39.04-.8.12-1.23.23-.45.12-.88.3-1.31.5-.45.22-.85.51-1.21.88-.4.42-.74.86-.97,1.36-.24.5-.38,1.07-.39,1.67-.01.58.13,1.21.42,1.86.3.66.77,1.34,1.46,2.01.7.72,1.39,1.2,2.08,1.48.67.27,1.3.39,1.88.36.58-.04,1.13-.18,1.63-.45.5-.26.93-.58,1.3-.94s.66-.76.89-1.21c.24-.45.42-.92.54-1.39.09-.39.18-.78.22-1.16.05-.38.08-.7.09-.96l.31-.3,2.7,2.7c-.15.42-.31.81-.46,1.17ZM156.91,167.2l-8.54-8.53,2.74-2.75,1.25,1.25c.09-1.12.27-1.98.54-2.59.28-.62.61-1.12.97-1.48.11-.09.22-.2.34-.32.13-.12.24-.22.35-.3l2.6,2.6-.24.24c-.16.08-.38.24-.66.47-.27.24-.5.45-.67.62-.38.39-.7.76-.94,1.11-.26.35-.49.76-.72,1.21l5.72,5.72-2.74,2.74ZM171.2,153.03c-.43.66-.98,1.32-1.65,1.98-1.71,1.71-3.41,2.63-5.09,2.78-1.69.15-3.24-.5-4.67-1.93s-2.09-2.95-2.05-4.64c.04-1.69.81-3.28,2.32-4.79,1.39-1.39,2.78-2.08,4.18-2.08s2.77.66,4.07,1.98l.96.96-6.26,6.26c.72.63,1.48.89,2.31.77.82-.11,1.69-.62,2.6-1.54.57-.58,1.03-1.24,1.36-1.98.34-.76.54-1.4.61-1.96l.31-.31,2.2,2.2c-.38.86-.77,1.63-1.21,2.29ZM180.14,143.97l-.9-.92c-.03.27-.08.58-.13.96-.07.38-.15.7-.24.98-.15.39-.34.76-.57,1.11s-.53.7-.86,1.04c-.81.81-1.74,1.24-2.79,1.28-1.05.05-1.97-.31-2.74-1.09-.63-.63-1-1.28-1.12-1.96-.11-.67-.03-1.38.26-2.12.28-.73.74-1.52,1.4-2.37.65-.84,1.35-1.69,2.12-2.54l-.05-.05c-.47-.47-.98-.59-1.55-.39-.57.2-1.21.67-1.97,1.43-.45.45-.85,1.01-1.2,1.69-.35.66-.61,1.16-.74,1.47l-.24.24-2.06-2.05c.22-.36.59-.93,1.13-1.69.55-.76,1.16-1.46,1.81-2.1,1.55-1.57,2.91-2.44,4.09-2.66,1.17-.22,2.27.19,3.29,1.21l5.82,5.82-2.73,2.71ZM190.01,134.31c-.28.38-.67.81-1.15,1.28-1.07,1.07-2.08,1.63-3.02,1.73-.94.09-1.94-.39-3-1.43l-3.98-3.99-1.13,1.12-1.85-1.85,1.12-1.12-2.44-2.44,2.75-2.75,2.44,2.44,2.55-2.55,1.85,1.85-2.55,2.56,3.04,3.02c.3.3.55.57.78.78.23.22.47.38.73.47.24.11.51.12.8.05.28-.08.59-.28.94-.63.13-.13.3-.35.46-.65.18-.28.27-.5.31-.65l.23-.23,1.88,1.88c-.22.36-.47.74-.76,1.11ZM192.48,131.63l-8.54-8.53,2.74-2.75,8.54,8.54-2.74,2.74ZM202.11,122.53c-1.48,1.48-3.04,2.23-4.66,2.24-1.63.01-3.14-.69-4.55-2.09s-2.12-2.93-2.1-4.56c.03-1.63.77-3.18,2.24-4.66,1.48-1.48,3.05-2.23,4.67-2.23,1.62-.01,3.14.69,4.55,2.09s2.09,2.93,2.09,4.55c-.01,1.63-.76,3.18-2.24,4.65ZM214.31,109.8l-4.24-4.24c-.34-.35-.7-.67-1.08-.97-.38-.31-.69-.5-.93-.58-.3-.08-.58-.07-.86.04-.28.11-.59.34-.94.69-.24.24-.46.54-.63.88s-.32.74-.45,1.21l6.04,6.06-2.74,2.74-8.54-8.54,2.75-2.74.94.94c.11-.86.27-1.63.53-2.28.24-.65.63-1.24,1.19-1.79.92-.92,1.9-1.38,2.95-1.35,1.07.01,2.13.57,3.2,1.63l5.56,5.56-2.75,2.74ZM222.8,101.79c-.76.76-1.52,1.38-2.28,1.85-.76.49-1.42.82-1.96,1.03l-2.25-2.25.24-.24c.24-.04.5-.09.8-.16.3-.07.67-.2,1.13-.39.4-.18.82-.39,1.27-.67.45-.27.86-.62,1.28-1.03.53-.54.88-1,1.01-1.38.13-.38.09-.67-.15-.92-.2-.2-.43-.28-.67-.22-.24.05-.62.26-1.13.59-.26.16-.58.38-.97.67-.4.3-.78.54-1.15.76-.97.57-1.86.84-2.67.78-.8-.05-1.52-.4-2.16-1.04-.82-.82-1.12-1.9-.88-3.22.23-1.32,1.01-2.66,2.36-3.99.65-.65,1.32-1.19,2.04-1.65.72-.46,1.31-.78,1.78-.96l2.16,2.16-.23.23c-.69.13-1.38.36-2.08.72-.69.34-1.31.78-1.84,1.31-.45.45-.76.88-.93,1.3-.18.43-.16.76.07.97.2.2.42.28.66.26.26-.03.67-.24,1.3-.65.32-.22.69-.46,1.07-.73.36-.27.76-.53,1.16-.77.9-.54,1.74-.77,2.48-.72.76.05,1.43.39,2.02,1,.89.88,1.2,1.98.94,3.32-.24,1.32-1.05,2.67-2.43,4.05Z"/>
    <path class="cls-1" d="M174.13,143.75c.02.31.16.59.43.86.18.18.34.31.48.39.14.08.33.11.55.09.22-.02.43-.08.64-.2.21-.11.49-.34.83-.69.27-.27.5-.61.67-1,.17-.39.27-.79.3-1.18l-1.77-1.77c-.34.4-.7.84-1.08,1.33s-.64.87-.79,1.17c-.19.36-.27.69-.25,1Z"/>
  </g>
</svg>